# xmcd
#
# Track frame offsets:
# 150
# 14012
# 26335
# 34906
# 49011
# 64061
# 76131
# 92572
# 106299
# 124912
# 141365
# 157791
# 172733
# 185758
# 201213
# 215210
# 231232
# 245445
# 261332
# 276787
#
# Disc length: 3883 seconds
#
#
# Revision: 0
# Processed by: cddbd v1.5.2PL0 Copyright (c) Steve Scherf et al.
# Submitted via: FreeRIP 2.96 
#
DISCID=1b0f2914
DTITLE=Varios - Sertanejas apaixonadas
DYEAR=1900
DGENRE=
TTITLE0=Amargurado-Tião Carreiro e Pardinho
TTITLE1=Pedaço de minha vida-Matogrosso e Mathias
TTITLE2=Vinte anos-Nenete e Dorinho
TTITLE3=Coração apaixonado-Chitãozinho e Xororó
TTITLE4=Tenho ciume de tudo-Chitãozinho e Xororó
TTITLE5=Passarinho do peito amarelo-Tibagi e Miltinho
TTITLE6=Amor distante-Os filhos de Goiás
TTITLE7=O futuro é uma incerteza-Milionário e José Rico
TTITLE8=Toalha molhada-Criolo e Juvenil
TTITLE9=Calvário da vida-Pedro e Paulo
TTITLE10=Pranto escondido-Mococo e Moraci
TTITLE11=Dama preferida-Carlito e Baduy
TTITLE12=Falso juramento-Matogrosso e Mathias
TTITLE13=Devolva a passagem-Zé do Rancho e Zé do Pinho
TTITLE14=Inferno da vida-Trio parada dura
TTITLE15=Vestido molhado-Mococa e Moraci
TTITLE16=Noite maravilhosa-Cezar e Paulinho
TTITLE17=Será que eu sou-Chitãozinho e Xororó
TTITLE18=Eu disse não-Duduca e Dalvan
TTITLE19=Troféu de dor-Gino e Geno
EXTD=
EXTT0=
EXTT1=
EXTT2=
EXTT3=
EXTT4=
EXTT5=
EXTT6=
EXTT7=
EXTT8=
EXTT9=
EXTT10=
EXTT11=
EXTT12=
EXTT13=
EXTT14=
EXTT15=
EXTT16=
EXTT17=
EXTT18=
EXTT19=
PLAYORDER=
